# AST/ASF file generated using VICON BodyLanguage
# -----------------------------------------------
:version 1.10
:name VICON
:units
  mass 1.0
  length 0.45
  angle deg
:documentation
   .ast/.asf automatically generated from VICON data using
   VICON BodyBuilder and BodyLanguage model FoxedUp or BRILLIANT.MOD
:root
   order TX TY TZ RX RY RZ
   axis XYZ
   position 0 0 0  
   orientation 0 0 0 
:bonedata
  begin
     id 1 
     name lhipjoint
     direction 0.693937 -0.600361 0.397515 
     length 2.37164 
     axis 0 0 0  XYZ
  end
  begin
     id 2 
     name lfemur
     direction 0.34202 -0.939693 0  
     length 6.18497  
     axis 0 0 20  XYZ
    dof rx ry rz
    limits (-160.0 20.0)
           (-70.0 70.0)
           (-60.0 70.0)
  end
  begin
     id 3 
     name ltibia
     direction 0.34202 -0.939693 0   
     length 6.91601   
     axis 0 0 20   XYZ
    dof rx
    limits (-10.0 170.0)
  end
  begin
     id 4 
     name lfoot
     direction 0.0978718 -0.2689 0.958182   
     length 1.81453   
     axis -90 7.62852e-016 20   XYZ
    dof rx rz
    limits (-45.0 90.0)
           (-70.0 20.0)
  end
  begin
     id 5 
     name ltoes
     direction 1.53569e-011 -4.21951e-011 1   
     length 0.912052   
     axis -90 7.62852e-016 20   XYZ
    dof rx
    limits (-90.0 20.0)
  end
  begin
     id 6 
     name rhipjoint
     direction -0.643996 -0.637876 0.422354   
     length 2.23216  
     axis 0 0 0  XYZ 
  end
  begin
     id 7 
     name rfemur
     direction -0.34202 -0.939693 0   
     length 6.15404   
     axis 0 0 -20   XYZ
    dof rx ry rz
    limits (-160.0 20.0)
           (-70.0 70.0)
           (-70.0 60.0)
  end
  begin
     id 8 
     name rtibia
     direction -0.34202 -0.939693 0   
     length 6.86744   
     axis 0 0 -20   XYZ
    dof rx
    limits (-10.0 170.0)
 end
 begin
     id 9 
     name rfoot
     direction -0.118701 -0.326127 0.937844   
     length 1.9243  
     axis -90 -7.62852e-016 -20   XYZ
    dof rx rz
    limits (-45.0 90.0)
           (-20.0 70.0)
  end
  begin
     id 10 
     name rtoes
     direction -1.5356e-011 -4.2181e-011 1   
     length 0.958865   
     axis -90 -7.62852e-016 -20   XYZ
    dof rx
    limits (-90.0 20.0)
  end
  begin
     id 11 
     name lowerback
     direction 0.0310826 0.968686 -0.246334   
     length 2.00021   
     axis 0 0 0   XYZ
    dof rx ry rz
    limits (-20.0 45.0)
           (-30.0 30.0)
           (-30.0 30.0)
  end
  begin
     id 12 
     name upperback
     direction -0.0152834 0.999474 -0.0286152   
     length 2.03728   
     axis 0 0 0   XYZ
    dof rx ry rz
    limits (-20.0 45.0)
           (-30.0 30.0)
           (-30.0 30.0)
  end
  begin
     id 13 
     name thorax
     direction -0.0323701 0.996236 0.0804149   
     length 2.16   
     axis 0 0 0   XYZ
    dof rx ry rz
    limits (-20.0 45.0)
           (-30.0 30.0)
           (-30.0 30.0)
  end
  begin
     id 14 
     name lowerneck
     direction 0.0307935 0.982251 0.185027   
     length 1.43558   
     axis 0 0 0   XYZ
    dof rx ry rz
    limits (-20.0 45.0)
           (-30.0 30.0)
           (-30.0 30.0)
  end
  begin
     id 15 
     name upperneck
     direction -0.0927153 0.994775 0.0427454   
     length 1.44603   
     axis 0 0 0   XYZ
    dof rx ry rz
    limits (-20.0 45.0)
           (-30.0 30.0)
           (-30.0 30.0)
  end
  begin
     id 16
     name head
     direction -0.0341265 0.999406 -0.00472033  
     length 1.45931  
     axis 0 0 0   XYZ
    dof rx ry rz
    limits (-20.0 45.0)
           (-30.0 30.0)
           (-30.0 30.0)
  end
  begin
     id 17 
     name lclavicle
     direction 0.820755 0.555306 -0.134151  
     length 2.66075  
     axis 0 0 0   XYZ
    dof ry rz
    limits (-20.0 10.0)
           (0.0 20.0)
  end
  begin
     id 18 
     name lhumerus
     direction 1 -4.48971e-011 5.24853e-027   
     length 5.0546   
     axis -180 -30 -90   XYZ
    dof rx ry rz
    limits (-60.0 90.0)
           (-90.0 90.0)
           (-90.0 90.0)
  end
  begin
     id 19
     name lradius
     direction 1 -4.48971e-011 2.76575e-028   
     length 3.39013   
     axis -180 -30 -90   XYZ
    dof rx
    limits (-10.0 170.0)
  end
  begin
     id 20
     name lwrist
     direction 1 -4.48939e-011 -2.27826e-027   
     length 1.69507   
     axis 2.17013e-015 90 90   XYZ
    dof ry
    limits (-180.0 0.0)
 end
  begin
     id 21 
     name lhand
     direction 1 -4.49009e-011 -4.55652e-027   
     length 0.572425   
     axis 2.90745e-015 90 90   XYZ
    dof rx rz
    limits (-90.0 90.0)
           (-45.0 45.0)
  end
  begin
     id 22 
     name lfingers
     direction 1 -4.48955e-011 -9.11303e-027   
     length 0.461504   
     axis 5.81489e-015 90 90   XYZ
    dof rx
    limits (0.0 90.0)
  end
  begin
     id 23
     name lthumb
     direction 0.707107 -6.34929e-011 0.707107   
     length 0.66263   
     axis -90 45 2.85299e-015   XYZ
    dof rx rz
    limits (-45.0 45.0)
           (-45.0 45.0)
  end
  begin
     id 24 
     name rclavicle
     direction -0.754477 0.632921 -0.173712   
     length 2.73081  
     axis 0 0 0   XYZ 
    dof ry rz
    limits (-10.0 20.0)
           (-20.0 0.0)
  end
  begin
     id 25 
     name rhumerus
     direction -1 -4.48969e-011 5.1496e-027  
     length 5.0701   
     axis -180 30 90   XYZ
    dof rx ry rz
    limits (-90.0 60.0)
           (-90.0 90.0)
           (-90.0 90.0)
  end
  begin
     id 26 
     name rradius
     direction -1 -4.48967e-011 -7.15624e-028   
     length 3.14957   
     axis -180 30 90   XYZ
    dof rx
    limits (-10.0 170.0)
  end
  begin
     id 27 
     name rwrist
     direction -1 -4.48938e-011 -2.27826e-027   
     length 1.57479   
     axis 2.17013e-015 -90 -90   XYZ
    dof ry
    limits (-180.0 0.0)
  end
  begin
     id 28
     name rhand
     direction -1 -4.49008e-011 -4.55652e-027   
     length 0.718191   
     axis 2.90745e-015 -90 -90   XYZ
    dof rx rz
    limits (-90.0 90.0)
           (-45.0 45.0)
  end
  begin
     id 29
     name rfingers
     direction -1 -4.48953e-011 -9.11303e-027   
     length 0.579024   
     axis 5.81489e-015 -90 -90   XYZ
    dof rx
    limits (0.0 90.0)
  end
  begin
     id 30
     name rthumb
     direction -0.707107 -6.34937e-011 0.707107   
     length 0.831366   
     axis -90 -45 -2.85299e-015   XYZ
    dof rx rz
    limits (-45.0 45.0)
           (-45.0 45.0)
  end
:hierarchy
  begin
    root lhipjoint rhipjoint lowerback
    lhipjoint lfemur
    lfemur ltibia
    ltibia lfoot
    lfoot ltoes
    rhipjoint rfemur
    rfemur rtibia
    rtibia rfoot
    rfoot rtoes
    lowerback upperback
    upperback thorax
    thorax lowerneck lclavicle rclavicle
    lowerneck upperneck
    upperneck head
    lclavicle lhumerus
    lhumerus lradius
    lradius lwrist
    lwrist lhand lthumb
    lhand lfingers
    rclavicle rhumerus
    rhumerus rradius
    rradius rwrist
    rwrist rhand rthumb
    rhand rfingers
  end

#!OML:ASF H:\Male1\Project 1\Capture day 1\Session 1\Male1.ASF
:FULLY-SPECIFIED
:DEGREES
1
root 21.8699 15.3963 0.507335 157.823 -84.2614 -161.021
lowerback 6.61979 0.503386 -1.43565
upperback 6.17158 0.396733 -0.656537
thorax 2.65445 0.0655406 0.106778
lowerneck -5.41119 -7.18782 0.107792
upperneck 2.15652 -9.70257 2.60078
head 1.71313 -4.78843 0.485208
rclavicle -2.98177e-015 -2.38542e-015
rhumerus -8.21841 36.6331 -93.0914
rradius 130.959
rwrist -4.55259
rhand -20.2283 25.6959
rfingers 7.12502
rthumb 6.11946 -4.19569
lclavicle -2.98177e-015 -2.38542e-015
lhumerus -3.73462 -19.5185 88.787
lradius 138.064
lwrist 4.09637
lhand 3.74713 -13.2048
lfingers 7.12502
lthumb 29.1743 14.5289
rfemur -2.85118 10.5866 21.6243
rtibia 23.3691
rfoot -24.6935 -29.765
rtoes -23.1738
lfemur -2.46114 -12.6449 -14.9342
ltibia 25.6929
lfoot -21.4901 23.4131
ltoes -7.23848
2
root 21.8731 15.3955 0.507717 158.189 -84.2576 -161.368
lowerback 6.64684 0.522094 -1.35634
upperback 6.15214 0.425533 -0.724732
thorax 2.61985 0.084683 -0.00921472
lowerneck -5.39816 -7.10783 0.267377
upperneck 2.19217 -9.60234 2.47521
head 1.70545 -4.73931 0.424575
rclavicle -9.64106e-015 3.97569e-015
rhumerus -7.72442 36.5471 -92.9158
rradius 130.907
rwrist -4.70179
rhand -20.3479 25.9212
rfingers 7.12502
rthumb 6.00398 -3.97377
lclavicle -9.64106e-015 3.97569e-015
lhumerus -3.45562 -19.5453 88.5588
lradius 138.142
lwrist 4.25624
lhand 4.14111 -12.5776
lfingers 7.12502
lthumb 29.5504 15.0901
rfemur -2.92995 10.4735 21.5596
rtibia 23.4176
rfoot -24.56 -29.7193
rtoes -23.4202
lfemur -2.55277 -12.5184 -14.941
ltibia 25.7914
lfoot -21.4018 23.3205
ltoes -7.53159
3
root 21.8764 15.3937 0.507358 157.14 -84.142 -160.311
lowerback 6.73414 0.540219 -1.17806
upperback 6.11236 0.456143 -0.698006
thorax 2.53066 0.106929 -0.0832529
lowerneck -5.29597 -6.96602 0.382328
upperneck 2.15056 -9.41324 2.34581
head 1.65871 -4.64804 0.378006
rclavicle -3.77691e-015 -3.97569e-015
rhumerus -7.26004 36.5283 -92.7108
rradius 130.83
rwrist -4.84738
rhand -20.337 26.2611
rfingers 7.12502
rthumb 6.01447 -3.63349
lclavicle -3.77691e-015 -3.97569e-015
lhumerus -3.15842 -19.5137 88.3819
lradius 138.188
lwrist 4.29787
lhand 4.33871 -12.286
lfingers 7.12502
lthumb 29.739 15.3482
rfemur -2.99001 10.3581 21.6866
rtibia 23.4408
rfoot -24.3809 -29.6247
rtoes -23.6767
lfemur -2.71759 -12.2739 -14.7365
ltibia 26.0799
lfoot -21.3845 23.1649
ltoes -7.98635
4
root 21.8803 15.3895 0.506071 155.171 -83.9936 -158.369
lowerback 6.79717 0.532584 -0.963633
upperback 6.1258 0.452216 -0.592798
thorax 2.51045 0.110011 -0.0951231
lowerneck -5.26189 -6.69608 0.458303
upperneck 2.08977 -9.04848 2.15792
head 1.61576 -4.47023 0.32286
rclavicle -9.93923e-017 7.95139e-016
rhumerus -6.65702 36.635 -92.3812
rradius 130.723
rwrist -4.97713
rhand -20.322 26.2264
rfingers 7.12502
rthumb 6.02896 -3.66784
lclavicle -9.93923e-017 7.95139e-016
lhumerus -2.80963 -19.3838 88.2354
lradius 138.187
lwrist 4.1679
lhand 4.18834 -12.511
lfingers 7.12502
lthumb 29.5955 15.1487
rfemur -3.06228 10.0827 21.92
rtibia 23.5715
rfoot -24.1378 -29.4142
rtoes -24.0697
lfemur -2.82704 -12.0268 -14.4167
ltibia 26.3414
lfoot -21.3981 22.9826
ltoes -8.281
5
root 21.8839 15.3811 0.505643 154.141 -83.8972 -157.442
lowerback 6.85159 0.549823 -0.820105
upperback 6.19799 0.476198 -0.545576
thorax 2.55626 0.123874 -0.128267
lowerneck -5.42694 -6.18674 0.72437
upperneck 2.19367 -8.38156 1.90512
head 1.64836 -4.1379 0.215589
rclavicle -2.98177e-015 -5.56597e-015
rhumerus -5.93145 36.6287 -91.9905
rradius 130.614
rwrist -5.09307
rhand -20.2748 26.0192
rfingers 7.12502
rthumb 6.07456 -3.87376
lclavicle -2.98177e-015 -5.56597e-015
lhumerus -2.44261 -19.3094 88.0573
lradius 138.19
lwrist 4.04179
lhand 3.85523 -13.2987
lfingers 7.12502
lthumb 29.2775 14.417
rfemur -3.11368 9.67133 22.0178
rtibia 23.805
rfoot -23.9092 -29.0954
rtoes -24.5223
lfemur -2.89088 -11.7912 -14.2416
ltibia 26.6437
lfoot -21.4887 22.7644
ltoes -8.32742
